<svg width="83" height="31" viewBox="0 0 83 31" fill="none" xmlns="http://www.w3.org/2000/svg">
<path d="M2 22.2689H4.08224L5.40473 23.6357V25.8212V26.8212H6.40473H8.48697L11.2679 29.6954L11.5627 30H11.9866H71.0135H71.4374L71.7322 29.6954L74.5131 26.8212H76.5953H77.5953V25.8212V23.6357L78.9178 22.2689H81H82V21.2689V9.69182V8.69182H81H78.8609L77.5384 7.32502V5.17877V4.17877H76.5384H74.57L71.7891 1.30464L71.4943 1H71.0704H12.0245H11.6096L11.3165 1.2938L8.43889 4.17877H6.34777H5.34777V5.17877V7.3643L4.02529 8.7311H2H1V9.7311V21.2689V22.2689H2Z" fill="black" stroke="#AC86E5" stroke-width="2"/>
<path d="M18.9086 6.6H21.1086V20.2H18.9086L17.3086 21.8V24H13.5086V21.8H15.1086L18.9086 18V6.6ZM30.7172 6.6H32.9172V20.2H30.7172L29.1172 21.8V24H26.9172V21.8L25.3172 20.2H23.1172V6.6H25.3172V18L28.0172 20.7L30.7172 18V6.6ZM37.1141 21.8H42.7141V24H34.9141V6.6H37.1141V21.8ZM48.7055 6.6H50.9055V12.6H48.7055L47.1055 14.2V24H44.9055V14.2L43.3055 12.6H41.1055V6.6H43.3055V10.4L46.0055 13.1L48.7055 10.4V6.6ZM59.8945 6.6H69.6945V12.6H67.4945L65.8945 14.2V20.2H62.0945V24H59.8945V18H63.6945V14.2L67.4945 10.4V8.8H59.8945V6.6Z" fill="#AC86E5"/>
</svg>
