<svg width="83" height="31" viewBox="0 0 83 31" fill="none" xmlns="http://www.w3.org/2000/svg">
<path d="M2 22.2689H4.08224L5.40473 23.6357V25.8212V26.8212H6.40473H8.48697L11.2679 29.6954L11.5627 30H11.9866H71.0135H71.4374L71.7322 29.6954L74.5131 26.8212H76.5953H77.5953V25.8212V23.6357L78.9178 22.2689H81H82V21.2689V9.69182V8.69182H81H78.8609L77.5384 7.32502V5.17877V4.17877H76.5384H74.57L71.7891 1.30464L71.4943 1H71.0704H12.0245H11.6096L11.3165 1.2938L8.43889 4.17877H6.34777H5.34777V5.17877V7.3643L4.02529 8.7311H2H1V9.7311V21.2689V22.2689H2Z" fill="black" stroke="#AC86E5" stroke-width="2"/>
<path d="M19.6039 6.6H21.8039V20.2H19.6039L18.0039 21.8V24H14.2039V21.8H15.8039L19.6039 18V6.6ZM31.4125 6.6H33.6125V20.2H31.4125L29.8125 21.8V24H27.6125V21.8L26.0125 20.2H23.8125V6.6H26.0125V18L28.7125 20.7L31.4125 18V6.6ZM37.8094 21.8H43.4094V24H35.6094V6.6H37.8094V21.8ZM49.4008 6.6H51.6008V12.6H49.4008L47.8008 14.2V24H45.6008V14.2L44.0008 12.6H41.8008V6.6H44.0008V10.4L46.7008 13.1L49.4008 10.4V6.6ZM70.1898 10.4V12.6L66.3898 16.4L67.9898 18H70.1898V20.2H67.9898L66.3898 21.8V24H64.1898L60.3898 20.2V18L64.1898 14.2L62.5898 12.6H60.3898V10.4H62.5898L64.1898 8.8V6.6H66.3898L70.1898 10.4ZM66.3898 14.2L67.9898 12.6V10.4L66.3898 8.8L63.6898 11.5L66.3898 14.2ZM66.8898 19.1L64.1898 16.4L62.5898 18V20.2L64.1898 21.8L66.8898 19.1Z" fill="#AC86E5"/>
</svg>
