<svg width="79" height="28" viewBox="0 0 79 28" fill="none" xmlns="http://www.w3.org/2000/svg">
<path d="M76.437 7.69182L74.5384 5.72961V3.17877H72.1461L69.0704 0H10.0245L6.85386 3.17877H4.34777V5.7689L2.44919 7.7311H0V19.2689H2.50614L4.40473 21.2311V23.8212H6.91087L9.98656 27H69.0135L72.0892 23.8212H74.5953V21.2311L76.4939 19.2689H79V7.69182H76.437Z" fill="#AC86E5"/>
<path d="M17.6039 4.6H19.8039V18.2H17.6039L16.0039 19.8V22H12.2039V19.8H13.8039L17.6039 16V4.6ZM29.4125 4.6H31.6125V18.2H29.4125L27.8125 19.8V22H25.6125V19.8L24.0125 18.2H21.8125V4.6H24.0125V16L26.7125 18.7L29.4125 16V4.6ZM35.8094 19.8H41.4094V22H33.6094V4.6H35.8094V19.8ZM47.4008 4.6H49.6008V10.6H47.4008L45.8008 12.2V22H43.6008V12.2L42.0008 10.6H39.8008V4.6H42.0008V8.4L44.7008 11.1L47.4008 8.4V4.6ZM68.1898 8.4V10.6L64.3898 14.4L65.9898 16H68.1898V18.2H65.9898L64.3898 19.8V22H62.1898L58.3898 18.2V16L62.1898 12.2L60.5898 10.6H58.3898V8.4H60.5898L62.1898 6.8V4.6H64.3898L68.1898 8.4ZM64.3898 12.2L65.9898 10.6V8.4L64.3898 6.8L61.6898 9.5L64.3898 12.2ZM64.8898 17.1L62.1898 14.4L60.5898 16V18.2L62.1898 19.8L64.8898 17.1Z" fill="black"/>
</svg>
