<svg width="79" height="28" viewBox="0 0 79 28" fill="none" xmlns="http://www.w3.org/2000/svg">
<path d="M76.437 7.69182L74.5384 5.72961V3.17877H72.1461L69.0704 0H10.0245L6.85386 3.17877H4.34777V5.7689L2.44919 7.7311H0V19.2689H2.50614L4.40473 21.2311V23.8212H6.91087L9.98656 27H69.0135L72.0892 23.8212H74.5953V21.2311L76.4939 19.2689H79V7.69182H76.437Z" fill="#AC86E5"/>
<path d="M16.9086 4.6H19.1086V18.2H16.9086L15.3086 19.8V22H11.5086V19.8H13.1086L16.9086 16V4.6ZM28.7172 4.6H30.9172V18.2H28.7172L27.1172 19.8V22H24.9172V19.8L23.3172 18.2H21.1172V4.6H23.3172V16L26.0172 18.7L28.7172 16V4.6ZM35.1141 19.8H40.7141V22H32.9141V4.6H35.1141V19.8ZM46.7055 4.6H48.9055V10.6H46.7055L45.1055 12.2V22H42.9055V12.2L41.3055 10.6H39.1055V4.6H41.3055V8.4L44.0055 11.1L46.7055 8.4V4.6ZM63.8945 6.8L60.0945 10.6V12.2H63.8945L67.6945 16V18.2H65.4945L63.8945 19.8V22H61.6945V19.8L60.0945 18.2H57.8945V8.4H60.0945L61.6945 6.8V4.6H67.6945V6.8H63.8945ZM63.8945 14.4H60.0945V16L62.7945 18.7L65.4945 16L63.8945 14.4Z" fill="black"/>
</svg>
