<svg width="246" height="37" viewBox="0 0 246 37" fill="none" xmlns="http://www.w3.org/2000/svg">
<path d="M3 26.7465H5.33258L6.83637 28.3657V30.9638V32.0905H7.96315H10.2957L13.427 35.4621L13.7614 35.8221H14.2527H232.316H232.807L233.142 35.4621L236.273 32.0905H238.606H239.732V30.9638V28.3657L241.236 26.7466H243.569H244.695V25.6198V12.0294V10.9027H243.569H241.172L239.668 9.28348V6.73156V5.60478H238.541H236.337L233.206 2.23321L232.872 1.87322H232.38L14.2954 1.87322H13.8143L13.4815 2.22077L10.2416 5.60478H7.89898H6.7722V6.73156V9.32958L5.2684 10.9488H3H1.87322V12.0755V25.6198V26.7465H3Z" fill="black" stroke="black" stroke-width="2.25356"/>
<path d="M27.4594 12.0864H21.9959V17.9869H27.4594V20.3909H21.9959V26.2914H27.4594V28.6953H19.592V9.6825H27.4594V12.0864ZM37.9483 9.6825H40.3523V16.2386H37.9483L36.2 17.9869V22.1392H40.3523V28.6953H37.9483V24.5431H36.2L32.0478 28.6953H29.6439V26.2914H32.0478L33.7961 24.5431V20.3909H29.6439V9.6825H32.0478V17.9869H33.7961L37.9483 13.8347V9.6825ZM50.8387 13.8347H53.2426V16.2386H50.8387L49.0904 17.9869V20.3909H44.9381V28.6953H42.5342V9.6825H49.0904V12.0864L50.8387 13.8347ZM46.6864 17.9869L49.6367 15.0367L46.6864 12.0864H44.9381V17.9869H46.6864ZM57.4016 26.2914H63.5207V28.6953H54.9977V9.6825H57.4016V26.2914ZM73.1406 13.8347H75.5446V24.5431H73.1406L71.3923 26.2914V28.6953H68.9884V26.2914L67.2401 24.5431H64.8362V13.8347H67.2401L68.9884 12.0864V9.6825H71.3923V12.0864L73.1406 13.8347ZM70.1904 25.0894L73.1406 22.1392V16.2386L70.1904 13.2884L67.2401 16.2386V22.1392L70.1904 25.0894ZM84.2827 17.9869V22.1392H88.4349V28.6953H86.031V24.5431H81.8788V20.3909H80.1305V28.6953H77.7265V9.6825H84.2827V12.0864L86.031 13.8347H88.4349V16.2386H86.031L84.2827 17.9869ZM80.1305 17.9869H81.8788L84.829 15.0367L81.8788 12.0864H80.1305V17.9869ZM98.4842 12.0864H93.0208V17.9869H98.4842V20.3909H93.0208V26.2914H98.4842V28.6953H90.6169V9.6825H98.4842V12.0864ZM116.613 13.8347H119.017V28.6953H116.613V20.3909H110.713V28.6953H108.309V13.8347H110.713L112.461 12.0864V9.6825H114.865V12.0864L116.613 13.8347ZM116.613 17.9869V16.2386L113.663 13.2884L110.713 16.2386V17.9869H116.613ZM123.603 26.2914H129.722V28.6953H121.199V9.6825H123.603V26.2914ZM133.655 26.2914H139.774V28.6953H131.251V9.6825H133.655V26.2914ZM157.248 13.8347H159.652V28.6953H157.248V20.3909H151.347V28.6953H148.943V13.8347H151.347L153.096 12.0864V9.6825H155.5V12.0864L157.248 13.8347ZM157.248 17.9869V16.2386L154.298 13.2884L151.347 16.2386V17.9869H157.248ZM168.39 17.9869V22.1392H172.542V28.6953H170.138V24.5431H165.986V20.3909H164.238V28.6953H161.834V9.6825H168.39V12.0864L170.138 13.8347H172.542V16.2386H170.138L168.39 17.9869ZM164.238 17.9869H165.986L168.936 15.0367L165.986 12.0864H164.238V17.9869ZM178.658 28.6953V12.0864H173.85V9.6825H185.87V12.0864H181.062V28.6953H178.658ZM187.188 28.6953V9.6825H189.592V28.6953H187.188ZM202.484 12.0864H198.332L194.18 16.2386L195.928 17.9869H198.332L202.484 22.1392V24.5431H200.08L198.332 26.2914V28.6953H195.928V26.2914L192.978 23.3411L194.18 22.1392L197.13 25.0894L200.08 22.1392L198.332 20.3909H195.928L191.776 16.2386V13.8347H194.18L195.928 12.0864V9.6825H202.484V12.0864ZM208.6 28.6953V12.0864H203.792V9.6825H215.812V12.0864H211.004V28.6953H208.6ZM227.411 12.0864H223.259L219.107 16.2386L220.855 17.9869H223.259L227.411 22.1392V24.5431H225.008L223.259 26.2914V28.6953H220.855V26.2914L217.905 23.3411L219.107 22.1392L222.057 25.0894L225.008 22.1392L223.259 20.3909H220.855L216.703 16.2386V13.8347H219.107L220.855 12.0864V9.6825H227.411V12.0864Z" fill="#FF5700"/>
</svg>
