<svg width="99" height="22" viewBox="0 0 99 22" fill="none" xmlns="http://www.w3.org/2000/svg">
<path d="M2 15.7209H3.142L3.82275 16.4867V17.8808V18.7558H4.69775H5.83975L7.46246 20.5813L7.72351 20.875H8.11644L91 20.875H91.3929L91.654 20.5813L93.2767 18.7558H94.4187H95.2937V17.8808V16.4867L95.9744 15.7209H97.1164H97.9914V14.8459V7.12788V6.25288H97.1164H95.9395L95.2588 5.48706V4.11918V3.24418H94.3838H93.3116L91.6889 1.41868L91.4278 1.125H91.0349L8.13968 1.125H7.75468L7.49457 1.40885L5.81276 3.24418H4.66286H3.78786V4.11918V5.51325L3.10712 6.27907H2H1.125V7.15407V14.8459V15.7209H2Z" fill="#FF5700" stroke="black" stroke-width="1.75"/>
<path d="M13.5438 5.56L15.8238 7.84V9.16L13.5438 11.44H11.2638V16H9.94375V5.56H13.5438ZM11.2638 10.12H12.2238L13.8438 8.5L12.2238 6.88H11.2638V10.12ZM21.1075 6.88H18.1075V10.12H21.1075V11.44H18.1075V14.68H21.1075V16H16.7875V5.56H21.1075V6.88ZM28.187 9.16L25.907 11.44V12.4H28.187V16H26.867V13.72H24.587V11.44H23.627V16H22.307V5.56H25.907L28.187 7.84V9.16ZM23.627 10.12H24.587L26.207 8.5L24.587 6.88H23.627V10.12ZM33.3452 6.88H30.7052V10.12H33.3452V11.44H30.7052V16H29.3852V5.56H33.3452V6.88ZM38.0242 5.56L40.3042 7.84V13.72L38.0242 16H36.7042L34.4242 13.72V7.84L36.7042 5.56H38.0242ZM38.9842 12.4V9.16L37.3642 7.54L35.7442 9.16V12.4L37.3642 14.02L38.9842 12.4ZM47.3823 9.16L45.1023 11.44V12.4H47.3823V16H46.0623V13.72H43.7823V11.44H42.8223V16H41.5023V5.56H45.1023L47.3823 7.84V9.16ZM42.8223 10.12H43.7823L45.4023 8.5L43.7823 6.88H42.8223V10.12ZM59.0205 5.56V16H57.7005V6.88H56.7405V9.16L54.4605 11.44V16H53.1405V11.44L50.8605 9.16V6.88H49.9005V16H48.5805V5.56H52.1805V7.84L53.8005 9.46L55.4205 7.84V5.56H59.0205ZM63.8172 5.56L66.0972 7.84V16H64.7772V11.44H61.5372V16H60.2172V7.84L62.4972 5.56H63.8172ZM64.7772 10.12V9.16L63.1572 7.54L61.5372 9.16V10.12H64.7772ZM74.1353 5.56H75.4553V16H71.8553V11.44L69.5753 9.16V6.88H68.6153V16H67.2953V5.56H70.8953V7.84L73.1753 10.12V14.68H74.1353V5.56ZM80.2586 6.88L77.9786 9.16V12.4L79.5986 14.02L81.2186 12.4L82.5386 13.72L80.2586 16H78.9386L76.6586 13.72V7.84L78.9386 5.56H82.5386V6.88H80.2586ZM88.0567 6.88H85.0567V10.12H88.0567V11.44H85.0567V14.68H88.0567V16H83.7367V5.56H88.0567V6.88Z" fill="black"/>
</svg>
