<svg width="79" height="22" viewBox="0 0 79 22" fill="none" xmlns="http://www.w3.org/2000/svg">
<path d="M2 15.7209H3.142L3.82275 16.4867V17.8808V18.7558H4.69775H5.83975L7.46246 20.5813L7.72351 20.875H8.11644L70.5 20.875H70.8929L71.154 20.5813L72.7767 18.7558H73.9187H74.7937V17.8808V16.4867L75.4744 15.7209H76.6164H77.4914V14.8459V7.12788V6.25288H76.6164H75.4395L74.7588 5.48706V4.11918V3.24418H73.8838H72.8116L71.1889 1.41868L70.9278 1.125H70.5349L8.13968 1.125H7.75468L7.49457 1.40885L5.81276 3.24418H4.66286H3.78786V4.11918V5.51325L3.10712 6.27907H2H1.125V7.15407V14.8459V15.7209H2Z" fill="#FF5700" stroke="black" stroke-width="1.75"/>
<path d="M15.1798 6.88H12.1798V10.12H15.1798V11.44H12.1798V14.68H15.1798V16H10.8598V5.56H15.1798V6.88ZM20.9393 5.56H22.2593V9.16L19.9793 11.44V12.4H22.2593V16H20.9393V13.72H19.9793L17.6993 16H16.3793V14.68L18.6593 12.4V11.44H16.3793V5.56H17.6993V10.12H18.6593L20.9393 7.84V5.56ZM28.0174 5.56H29.3374V16H28.0174V11.44H24.7774V16H23.4574V5.56H24.7774V10.12H28.0174V5.56ZM30.5355 16V5.56H31.8555V16H30.5355ZM38.9351 7.84V9.16L37.3151 10.78L38.9351 12.4V13.72L36.6551 16H33.0551V5.56H36.6551L38.9351 7.84ZM34.3751 6.88V10.12H35.3351L36.9551 8.5L35.3351 6.88H34.3751ZM34.3751 14.68H35.3351L36.9551 13.06L35.3351 11.44H34.3751V14.68ZM40.016 16V5.56H41.336V16H40.016ZM44.6955 16V6.88H42.0555V5.56H48.6555V6.88H46.0155V16H44.6955ZM49.3793 16V5.56H50.6993V16H49.3793ZM55.4988 5.56L57.7788 7.84V13.72L55.4988 16H54.1788L51.8988 13.72V7.84L54.1788 5.56H55.4988ZM56.4588 12.4V9.16L54.8388 7.54L53.2188 9.16V12.4L54.8388 14.02L56.4588 12.4ZM65.817 5.56H67.137V16H63.537V11.44L61.257 9.16V6.88H60.297V16H58.977V5.56H62.577V7.84L64.857 10.12V14.68H65.817V5.56Z" fill="black"/>
</svg>
