<svg width="40" height="22" viewBox="0 0 40 22" fill="none" xmlns="http://www.w3.org/2000/svg">
<path d="M2 15.7209H3.142L3.82275 16.4867V17.8808V18.7558H4.69775H5.83975L7.46246 20.5813L7.72351 20.875H8.11644L31.8836 20.875H32.2765L32.5376 20.5813L34.1603 18.7558H35.3023H36.1773V17.8808V16.4867L36.858 15.7209H38H38.875V14.8459V7.12788V6.25288H38H36.8231L36.1424 5.48706V4.11918V3.24418H35.2674H34.1952L32.5725 1.41868L32.3114 1.125H31.9185L8.13968 1.125H7.75468L7.49457 1.40885L5.81276 3.24418H4.66286H3.78786V4.11918V5.51325L3.10712 6.27907H2H1.125V7.15407V14.8459V15.7209H2Z" fill="#FF5700" stroke="black" stroke-width="1.75"/>
<path d="M11.2833 14.68H14.6433V16H9.96328V5.56H11.2833V14.68ZM15.4828 16V5.56H16.8028V16H15.4828ZM22.5623 5.56H23.8823V9.16L21.6023 11.44V16H18.0023V5.56H19.3223V14.68H20.2823V10.12L22.5623 7.84V5.56ZM29.4005 6.88H26.4005V10.12H29.4005V11.44H26.4005V14.68H29.4005V16H25.0805V5.56H29.4005V6.88Z" fill="black"/>
</svg>
