<svg width="56" height="22" viewBox="0 0 56 22" fill="none" xmlns="http://www.w3.org/2000/svg">
<path d="M2 15.7209H3.142L3.82275 16.4867V17.8808V18.7558H4.69775H5.83975L7.46246 20.5813L7.72351 20.875H8.11644L47.8836 20.875H48.2765L48.5376 20.5813L50.1603 18.7558H51.3023H52.1773V17.8808V16.4867L52.858 15.7209H54H54.875V14.8459V7.12788V6.25288H54H52.8231L52.1424 5.48706V4.11918V3.24418H51.2674H50.1952L48.5725 1.41868L48.3114 1.125H47.9185L8.13968 1.125H7.75468L7.49457 1.40885L5.81276 3.24418H4.66286H3.78786V4.11918V5.51325L3.10712 6.27907H2H1.125V7.15407V14.8459V15.7209H2Z" fill="#FF5700" stroke="black" stroke-width="1.75"/>
<path d="M14.4344 5.56L16.7144 7.84V13.72L14.4344 16H10.8344V5.56H14.4344ZM15.3944 12.4V9.16L13.1144 6.88H12.1544V14.68H13.1144L15.3944 12.4ZM20.4381 5.56H21.7581V13.72L19.4781 16H17.1981V14.68H18.1581L20.4381 12.4V5.56ZM33.0386 6.88H30.7586L29.1386 8.5L33.0386 12.4V13.72L30.7586 16H29.4386L27.1586 13.72L28.4786 12.4L30.0986 14.02L31.0586 13.06L27.1586 9.16V7.84L29.4386 5.56H33.0386V6.88ZM38.5567 6.88H35.5567V10.12H38.5567V11.44H35.5567V14.68H38.5567V16H34.2367V5.56H38.5567V6.88ZM41.9163 16V6.88H39.2763V5.56H45.8763V6.88H43.2363V16H41.9163Z" fill="black"/>
</svg>
