<svg width="858" height="574" viewBox="0 0 858 574" fill="none" xmlns="http://www.w3.org/2000/svg">
  <path id="movie" d="M857.392 35.9402C697.061 129.783 649.178 129.783 780.833 35.9402C649.178 129.783 649.178 107.225 780.833 0C649.178 107.225 208.268 112.152 76.5675 7.82332C208.223 112.152 208.223 129.765 76.5675 35.9583C208.223 129.802 160.331 129.802 0 35.9583C160.331 129.802 160.331 443.816 0 537.659C160.331 443.816 208.304 443.816 76.5675 537.659C208.223 443.816 208.223 466.374 76.5675 573.599C208.223 466.356 649.124 461.465 780.833 565.794C649.178 461.429 649.178 443.798 780.833 537.641C649.178 443.798 697.07 443.798 857.401 537.641C697.061 443.798 697.061 129.783 857.392 35.9402Z" fill="white" />
</svg>
